<svg width="33" height="33" viewBox="0 0 33 33" fill="none" xmlns="http://www.w3.org/2000/svg">
    <path
        d="M16.8125 8.35303C20.0291 8.35303 21.6375 8.35312 22.7959 9.11963C23.3132 9.46191 23.7564 9.90507 24.0986 10.4224C24.865 11.5808 24.8652 13.1892 24.8652 16.4058C24.8652 19.6223 24.8651 21.2307 24.0986 22.3892C23.7563 22.9065 23.3132 23.3496 22.7959 23.6919C21.6375 24.4584 20.0291 24.4585 16.8125 24.4585C13.596 24.4585 11.9875 24.4583 10.8291 23.6919C10.3118 23.3496 9.86865 22.9064 9.52637 22.3892C8.75986 21.2307 8.75977 19.6224 8.75977 16.4058C8.75977 13.1892 8.75992 11.5808 9.52637 10.4224C9.86865 9.90506 10.3118 9.46191 10.8291 9.11963C11.9875 8.35319 13.5959 8.35303 16.8125 8.35303ZM16.8125 12.2368C14.5101 12.2368 12.6436 14.1034 12.6436 16.4058C12.6436 18.7082 14.5101 20.5747 16.8125 20.5747C19.1148 20.5746 20.9814 18.7081 20.9814 16.4058C20.9814 14.1034 19.1148 12.2369 16.8125 12.2368ZM16.8125 13.647C18.3358 13.6471 19.5703 14.8824 19.5703 16.4058C19.5703 17.9291 18.3359 19.1644 16.8125 19.1646C15.289 19.1646 14.0537 17.9292 14.0537 16.4058C14.0538 14.8823 15.2891 13.647 16.8125 13.647ZM21.1455 11.0483C20.6045 11.0483 20.166 11.4868 20.166 12.0278C20.1662 12.5687 20.6046 13.0073 21.1455 13.0073C21.6863 13.0073 22.1248 12.5686 22.125 12.0278C22.125 11.4869 21.6865 11.0484 21.1455 11.0483Z"
        fill="#071210" />
    <circle cx="16.5" cy="16.5" r="16.25" stroke="#071210" stroke-width="0.5" />
</svg>