<svg width="33" height="33" viewBox="0 0 33 33" fill="none" xmlns="http://www.w3.org/2000/svg">
    <path
        d="M19.5208 10.0829V10.0801H20.276L20.5519 10.1335C20.7359 10.1681 20.9029 10.2135 21.0529 10.2697C21.203 10.3259 21.3482 10.3915 21.4886 10.4664C21.629 10.5413 21.7563 10.6176 21.8705 10.6953C21.9838 10.7721 22.0855 10.8536 22.1755 10.9398C22.2646 11.0269 22.4035 11.0493 22.5923 11.0072C22.7811 10.9651 22.9844 10.9065 23.2022 10.8316C23.4201 10.7567 23.6355 10.6724 23.8485 10.5788C24.0615 10.4851 24.1912 10.4256 24.2377 10.4004C24.2832 10.3741 24.3074 10.3601 24.3103 10.3582L24.3132 10.354L24.3277 10.347L24.3422 10.34L24.3567 10.3329L24.3713 10.3259L24.3742 10.3217L24.3785 10.3189L24.3829 10.3161L24.3858 10.3119L24.4003 10.3076L24.4148 10.3048L24.4119 10.3259L24.4076 10.347L24.4003 10.368L24.3931 10.3891L24.3858 10.4032L24.3785 10.4172L24.3713 10.4383C24.3664 10.4523 24.3616 10.4711 24.3567 10.4945C24.3519 10.5179 24.3059 10.6115 24.2188 10.7754C24.1317 10.9393 24.0227 11.1055 23.892 11.2741C23.7613 11.4427 23.6442 11.57 23.5406 11.6562C23.436 11.7433 23.3668 11.8041 23.3329 11.8388C23.299 11.8744 23.2579 11.9072 23.2095 11.9371L23.1369 11.9835L23.1223 11.9905L23.1078 11.9975L23.1049 12.0017L23.1006 12.0046L23.0962 12.0074L23.0933 12.0116L23.0788 12.0186L23.0643 12.0256L23.0614 12.0298L23.057 12.0327L23.0526 12.0355L23.0497 12.0397L23.0468 12.0439L23.0425 12.0467L23.0381 12.0495L23.0352 12.0537H23.1078L23.5145 11.9694C23.7855 11.9132 24.0445 11.8454 24.2914 11.7658L24.6835 11.6393L24.7271 11.6253L24.7488 11.6183L24.7634 11.6112L24.7779 11.6042L24.7924 11.5972L24.8069 11.5902L24.836 11.5859L24.865 11.5831V11.6112L24.8578 11.614L24.8505 11.6183L24.8476 11.6225L24.8432 11.6253L24.8389 11.6281L24.836 11.6323L24.8331 11.6365L24.8287 11.6393L24.8244 11.6421L24.8215 11.6464L24.8186 11.6506L24.8142 11.6534L24.8069 11.6674L24.7997 11.6815L24.7953 11.6843C24.7934 11.6871 24.7319 11.7667 24.6109 11.9231C24.4899 12.0804 24.4245 12.16 24.4148 12.1619C24.4052 12.1647 24.3916 12.1787 24.3742 12.204C24.3577 12.2302 24.2551 12.3347 24.0663 12.5173C23.8775 12.6999 23.6926 12.8624 23.5116 13.0047C23.3296 13.148 23.2376 13.3241 23.2356 13.5329C23.2327 13.7408 23.2216 13.9759 23.2022 14.2381C23.1829 14.5003 23.1466 14.7836 23.0933 15.0879C23.0401 15.3923 22.9578 15.7365 22.8464 16.1204C22.7351 16.5044 22.5995 16.879 22.4398 17.2442C22.2801 17.6094 22.113 17.9372 21.9388 18.2275C21.7645 18.5178 21.6048 18.7636 21.4595 18.965C21.3143 19.1663 21.1667 19.356 21.0166 19.5339C20.8666 19.7118 20.6768 19.9123 20.4474 20.1351C20.2169 20.3571 20.0911 20.4788 20.0698 20.5004C20.0475 20.521 19.9526 20.5978 19.7851 20.7307C19.6186 20.8646 19.4395 20.9986 19.2478 21.1325C19.0571 21.2655 18.8818 21.3764 18.7221 21.4654C18.5623 21.5544 18.3697 21.656 18.1441 21.7702C17.9195 21.8854 17.6765 21.9922 17.4151 22.0905C17.1537 22.1888 16.8777 22.2801 16.5873 22.3644C16.2969 22.4487 16.0161 22.5143 15.745 22.5611C15.4739 22.6079 15.1665 22.6477 14.8228 22.6805L14.3073 22.7297V22.7367H13.3633V22.7297L13.2399 22.7226C13.1576 22.718 13.0898 22.7133 13.0366 22.7086C12.9834 22.7039 12.7825 22.6781 12.4339 22.6313C12.0854 22.5845 11.8119 22.5377 11.6134 22.4909C11.4149 22.444 11.1196 22.3551 10.7275 22.224C10.3354 22.0929 9.99997 21.9603 9.72114 21.8264C9.44329 21.6934 9.26902 21.6092 9.19834 21.5736C9.12863 21.5389 9.05021 21.4958 8.96308 21.4443L8.83238 21.3671L8.82949 21.3629L8.82512 21.3601L8.82076 21.3572L8.81785 21.353L8.80333 21.346L8.78881 21.339L8.78592 21.3348L8.78155 21.332L8.77719 21.3291L8.77429 21.3249L8.7714 21.3207L8.76703 21.3179H8.75977V21.2898L8.77429 21.2926L8.78881 21.2968L8.85416 21.3039C8.89773 21.3085 9.01633 21.3156 9.20996 21.3249C9.4036 21.3343 9.60932 21.3343 9.82716 21.3249C10.045 21.3156 10.2677 21.2945 10.4952 21.2617C10.7227 21.2289 10.9914 21.1728 11.3012 21.0932C11.611 21.0135 11.8956 20.919 12.1551 20.8094C12.4136 20.6989 12.5975 20.6165 12.7069 20.5622C12.8154 20.5088 12.9809 20.4095 13.2036 20.2644L13.5376 20.0466L13.5405 20.0424L13.5449 20.0396L13.5492 20.0368L13.5521 20.0326L13.555 20.0284L13.5594 20.0256L13.5638 20.0227L13.5667 20.0185L13.5812 20.0143L13.5957 20.0115L13.5986 19.9975L13.603 19.9834L13.6073 19.9806L13.6102 19.9764L13.494 19.9694C13.4166 19.9647 13.3416 19.96 13.2689 19.9553C13.1963 19.9506 13.0826 19.9296 12.9277 19.8921C12.7728 19.8546 12.6058 19.7985 12.4267 19.7235C12.2475 19.6486 12.0733 19.5597 11.9038 19.4566C11.7344 19.3536 11.612 19.2679 11.5364 19.1996C11.4619 19.1321 11.3651 19.0366 11.246 18.913C11.1279 18.7885 11.0252 18.6606 10.9381 18.5295C10.851 18.3984 10.7677 18.2472 10.6883 18.0758L10.5678 17.8201L10.5605 17.7991L10.5533 17.778L10.5489 17.7639L10.546 17.7499L10.5678 17.7527L10.5896 17.7569L10.7493 17.778C10.8558 17.792 11.0228 17.7967 11.2503 17.792C11.4779 17.7874 11.6352 17.778 11.7223 17.7639C11.8095 17.7499 11.8627 17.7405 11.8821 17.7358L11.9111 17.7288L11.9474 17.7218L11.9837 17.7148L11.9866 17.7106L11.991 17.7078L11.9954 17.7049L11.9982 17.7007L11.9692 17.6937L11.9402 17.6867L11.9111 17.6797L11.8821 17.6726L11.853 17.6656C11.8337 17.6609 11.7998 17.6516 11.7514 17.6375C11.703 17.6235 11.5723 17.572 11.3593 17.483C11.1463 17.394 10.9768 17.3074 10.851 17.2231C10.7248 17.1386 10.6045 17.0462 10.4908 16.9464C10.3776 16.8453 10.2532 16.7151 10.1176 16.5559C9.98207 16.3967 9.86105 16.2117 9.75455 16.001C9.64805 15.7903 9.56818 15.589 9.51493 15.397C9.46189 15.2061 9.42689 15.011 9.41038 14.814L9.38423 14.519L9.39875 14.5218L9.41327 14.526L9.42779 14.5331L9.44232 14.5401L9.45684 14.5471L9.47136 14.5541L9.69646 14.6525C9.84653 14.718 10.0329 14.7742 10.2556 14.821C10.4783 14.8679 10.6114 14.8936 10.6549 14.8983L10.7203 14.9053H10.851L10.8481 14.9011L10.8437 14.8983L10.8394 14.8955L10.8365 14.8913L10.8336 14.8871L10.8292 14.8843L10.8248 14.8814L10.8219 14.8772L10.8074 14.8702L10.7929 14.8632L10.79 14.859L10.7856 14.8562L10.7813 14.8533L10.7784 14.8491L10.7638 14.8421L10.7493 14.8351L10.7464 14.8309C10.7435 14.829 10.7019 14.799 10.6215 14.741C10.5421 14.682 10.4589 14.6057 10.3717 14.512C10.2846 14.4183 10.1975 14.32 10.1103 14.217C10.023 14.1138 9.9453 14.0033 9.87799 13.8869C9.81022 13.7698 9.73857 13.6209 9.66305 13.4402C9.58851 13.2604 9.53187 13.0792 9.49314 12.8966C9.45443 12.7139 9.43264 12.5337 9.42779 12.3557C9.42296 12.1778 9.42779 12.0256 9.44232 11.8992C9.45684 11.7728 9.48588 11.63 9.52945 11.4708C9.57302 11.3116 9.63596 11.143 9.71824 10.9651L9.84168 10.6982L9.84894 10.6771L9.8562 10.656L9.86057 10.6532L9.86346 10.649L9.86637 10.6448L9.87072 10.642L9.8751 10.6448L9.87799 10.649L9.88089 10.6532L9.88525 10.656L9.88962 10.6588L9.89251 10.663L9.89541 10.6673L9.89977 10.6701L9.90703 10.6841L9.91429 10.6982L9.91866 10.701L9.92155 10.7052L10.1176 10.9159C10.2483 11.0564 10.4032 11.2132 10.5823 11.3865C10.7614 11.5597 10.8607 11.6496 10.88 11.6562C10.8994 11.6637 10.9236 11.6852 10.9526 11.7208C10.9817 11.7555 11.0785 11.8383 11.2431 11.9694C11.4077 12.1005 11.6231 12.2527 11.8893 12.426C12.1556 12.5992 12.4509 12.7701 12.7752 12.9387C13.0995 13.1073 13.4481 13.2594 13.8208 13.3952C14.1935 13.531 14.4549 13.62 14.605 13.6621C14.7551 13.7043 15.0116 13.7581 15.3747 13.8237C15.7377 13.8892 16.0113 13.9314 16.1952 13.9501C16.3792 13.9688 16.505 13.9796 16.5728 13.9824L16.6744 13.9852L16.6715 13.9642L16.6672 13.9431L16.6381 13.7675C16.6188 13.6504 16.6091 13.4865 16.6091 13.2758C16.6091 13.0651 16.626 12.8708 16.6599 12.6929C16.6938 12.5149 16.7446 12.3347 16.8124 12.1521C16.8802 11.9694 16.9465 11.8229 17.0114 11.7124C17.0772 11.6028 17.1634 11.4778 17.2699 11.3373C17.3764 11.1968 17.5143 11.0517 17.6837 10.9018C17.8532 10.752 18.0468 10.6186 18.2646 10.5015C18.4825 10.3844 18.6834 10.2955 18.8673 10.2346C19.0513 10.1737 19.2062 10.1339 19.332 10.1152C19.4579 10.0965 19.5208 10.0857 19.5208 10.0829Z"
        fill="#071210" />
    <circle cx="16.5" cy="16.5" r="16.25" stroke="#071210" stroke-width="0.5" />
</svg>